<svg width="59" height="68" viewBox="0 0 59 68" fill="none" xmlns="http://www.w3.org/2000/svg">
<path d="M29.4062 7.4253L40.556 13.8639L46.2095 10.6089L29.4062 0.901001L1.33887 17.1189L6.96375 20.374L29.4062 7.4253Z" fill="#2DD295"/>
<path d="M51.8343 13.864L29.4062 26.8126L18.2563 20.374L12.6172 23.629L29.4062 33.3226L57.4878 17.119L51.8343 13.864Z" fill="#2DD295"/>
<path d="M5.8501 35.6498L0.210938 32.3948V51.7821L28.2783 68V61.49L5.8501 48.5271V35.6498Z" fill="#2DD295"/>
<path d="M0.210938 25.8845L22.6391 38.8331V51.7104L28.2783 54.9797V35.5781L0.210938 19.3745V25.8845Z" fill="#2DD295"/>
<path d="M47.3375 32.3946V25.8846L30.5342 35.5782V67.9998L36.1733 64.7448V38.8332L47.3375 32.3946Z" fill="#2DD295"/>
<path d="M52.9623 22.6295V48.5268L41.8125 54.9797V61.4897L58.6158 51.7818V19.3745L52.9623 22.6295Z" fill="#2DD295"/>
</svg>
